<svg xmlns="http://www.w3.org/2000/svg" xmlns:svg="http://www.w3.org/2000/svg" xmlns:xlink="http://www.w3.org/1999/xlink" id="svg5414" width="100%" height="100%" version="1.0" viewBox="0 0 245 245"><defs id="defs5416"><linearGradient id="linearGradient4949" x1="-43.6" x2="-28.4" y1="-29.3" y2="-29.3" gradientTransform="matrix(0,-0.98340352,1.0000056,0,512.19594,452.46587)" gradientUnits="userSpaceOnUse" xlink:href="#linearGradient4941"/><linearGradient id="linearGradient4971" x1="-43.6" x2="-28.4" y1="-29.3" y2="-29.3" gradientTransform="matrix(0,-0.98340352,1.0000056,0,525.19602,452.46587)" gradientUnits="userSpaceOnUse" xlink:href="#linearGradient4941"/><linearGradient id="linearGradient4977" x1="-43.6" x2="-28.4" y1="-29.3" y2="-29.3" gradientTransform="matrix(0,-0.98340352,1.0000056,0,538.1961,452.46587)" gradientUnits="userSpaceOnUse" xlink:href="#linearGradient4941"/><linearGradient id="linearGradient4987" x1="-43.6" x2="-28.4" y1="-29.3" y2="-29.3" gradientTransform="matrix(0,-0.98340352,1.0000056,0,551.19616,452.46587)" gradientUnits="userSpaceOnUse" xlink:href="#linearGradient4941"/><linearGradient id="linearGradient4991" x1="-43.6" x2="-28.4" y1="-29.3" y2="-29.3" gradientTransform="matrix(0,-0.98340352,1.0000056,0,564.19624,452.46587)" gradientUnits="userSpaceOnUse" xlink:href="#linearGradient4941"/><linearGradient id="linearGradient4995" x1="-43.6" x2="-28.4" y1="-29.3" y2="-29.3" gradientTransform="matrix(0,-0.98340352,1.0000056,0,577.19632,452.46587)" gradientUnits="userSpaceOnUse" xlink:href="#linearGradient4941"/><linearGradient id="linearGradient5011" x1="-43.6" x2="-28.4" y1="-29.3" y2="-29.3" gradientTransform="matrix(0,-0.98340352,1.0000056,0,590.25674,452.46587)" gradientUnits="userSpaceOnUse" xlink:href="#linearGradient4941"/><linearGradient id="linearGradient5015" x1="-43.6" x2="-28.4" y1="-29.3" y2="-29.3" gradientTransform="matrix(0,-0.98340352,1.0000056,0,603.25682,452.46587)" gradientUnits="userSpaceOnUse" xlink:href="#linearGradient4941"/><linearGradient id="linearGradient5019" x1="-43.6" x2="-28.4" y1="-29.3" y2="-29.3" gradientTransform="matrix(0,-0.98340352,1.0000056,0,616.2569,452.46587)" gradientUnits="userSpaceOnUse" xlink:href="#linearGradient4941"/><linearGradient id="linearGradient5023" x1="-43.6" x2="-28.4" y1="-29.3" y2="-29.3" gradientTransform="matrix(0,-0.98340352,1.0000056,0,629.25696,452.46587)" gradientUnits="userSpaceOnUse" xlink:href="#linearGradient4941"/><linearGradient id="linearGradient5027" x1="-43.6" x2="-28.4" y1="-29.3" y2="-29.3" gradientTransform="matrix(0,-0.98340352,1.0000056,0,642.25704,452.46587)" gradientUnits="userSpaceOnUse" xlink:href="#linearGradient4941"/><linearGradient id="linearGradient5031" x1="-43.6" x2="-28.4" y1="-29.3" y2="-29.3" gradientTransform="matrix(0,-0.98340352,1.0000056,0,655.25712,452.46587)" gradientUnits="userSpaceOnUse" xlink:href="#linearGradient4941"/><linearGradient id="linearGradient5059" x1="-43.6" x2="-28.4" y1="-29.3" y2="-29.3" gradientTransform="matrix(0,1,-1,0,597.57786,701.73849)" gradientUnits="userSpaceOnUse" xlink:href="#linearGradient4941"/><linearGradient id="linearGradient5063" x1="-43.6" x2="-28.4" y1="-29.3" y2="-29.3" gradientTransform="matrix(0,1,-1,0,584.57786,701.73849)" gradientUnits="userSpaceOnUse" xlink:href="#linearGradient4941"/><linearGradient id="linearGradient5067" x1="-43.6" x2="-28.4" y1="-29.3" y2="-29.3" gradientTransform="matrix(0,1,-1,0,571.57786,701.73849)" gradientUnits="userSpaceOnUse" xlink:href="#linearGradient4941"/><linearGradient id="linearGradient5071" x1="-43.6" x2="-28.4" y1="-29.3" y2="-29.3" gradientTransform="matrix(0,1,-1,0,558.57786,701.73849)" gradientUnits="userSpaceOnUse" xlink:href="#linearGradient4941"/><linearGradient id="linearGradient5075" x1="-43.6" x2="-28.4" y1="-29.3" y2="-29.3" gradientTransform="matrix(0,1,-1,0,545.57786,701.73849)" gradientUnits="userSpaceOnUse" xlink:href="#linearGradient4941"/><linearGradient id="linearGradient5079" x1="-43.6" x2="-28.4" y1="-29.3" y2="-29.3" gradientTransform="matrix(0,1,-1,0,532.57786,701.73849)" gradientUnits="userSpaceOnUse" xlink:href="#linearGradient4941"/><linearGradient id="linearGradient5083" x1="-43.6" x2="-28.4" y1="-29.3" y2="-29.3" gradientTransform="matrix(0,1,-1,0,519.5175,701.73849)" gradientUnits="userSpaceOnUse" xlink:href="#linearGradient4941"/><linearGradient id="linearGradient5087" x1="-43.6" x2="-28.4" y1="-29.3" y2="-29.3" gradientTransform="matrix(0,1,-1,0,506.5175,701.73849)" gradientUnits="userSpaceOnUse" xlink:href="#linearGradient4941"/><linearGradient id="linearGradient5091" x1="-43.6" x2="-28.4" y1="-29.3" y2="-29.3" gradientTransform="matrix(0,1,-1,0,493.5175,701.73849)" gradientUnits="userSpaceOnUse" xlink:href="#linearGradient4941"/><linearGradient id="linearGradient5095" x1="-43.6" x2="-28.4" y1="-29.3" y2="-29.3" gradientTransform="matrix(0,1,-1,0,480.5175,701.73849)" gradientUnits="userSpaceOnUse" xlink:href="#linearGradient4941"/><linearGradient id="linearGradient5099" x1="-43.6" x2="-28.4" y1="-29.3" y2="-29.3" gradientTransform="matrix(0,1,-1,0,467.5175,701.73849)" gradientUnits="userSpaceOnUse" xlink:href="#linearGradient4941"/><linearGradient id="linearGradient5103" x1="-43.6" x2="-28.4" y1="-29.3" y2="-29.3" gradientTransform="matrix(0,1,-1,0,454.5175,701.73849)" gradientUnits="userSpaceOnUse" xlink:href="#linearGradient4941"/><linearGradient id="linearGradient5131" x1="-43.6" x2="-28.4" y1="-29.3" y2="-29.3" gradientTransform="translate(679.19618,535.35681)" gradientUnits="userSpaceOnUse" xlink:href="#linearGradient4941"/><linearGradient id="linearGradient5135" x1="-43.6" x2="-28.4" y1="-29.3" y2="-29.3" gradientTransform="translate(679.19618,548.35681)" gradientUnits="userSpaceOnUse" xlink:href="#linearGradient4941"/><linearGradient id="linearGradient5139" x1="-43.6" x2="-28.4" y1="-29.3" y2="-29.3" gradientTransform="translate(679.19618,561.35681)" gradientUnits="userSpaceOnUse" xlink:href="#linearGradient4941"/><linearGradient id="linearGradient5143" x1="-43.6" x2="-28.4" y1="-29.3" y2="-29.3" gradientTransform="translate(679.19618,574.35681)" gradientUnits="userSpaceOnUse" xlink:href="#linearGradient4941"/><linearGradient id="linearGradient5147" x1="-43.6" x2="-28.4" y1="-29.3" y2="-29.3" gradientTransform="translate(679.19618,587.35681)" gradientUnits="userSpaceOnUse" xlink:href="#linearGradient4941"/><linearGradient id="linearGradient5151" x1="-43.6" x2="-28.4" y1="-29.3" y2="-29.3" gradientTransform="translate(679.19618,600.35681)" gradientUnits="userSpaceOnUse" xlink:href="#linearGradient4941"/><linearGradient id="linearGradient5155" x1="-43.6" x2="-28.4" y1="-29.3" y2="-29.3" gradientTransform="translate(679.19618,613.41717)" gradientUnits="userSpaceOnUse" xlink:href="#linearGradient4941"/><linearGradient id="linearGradient5159" x1="-43.6" x2="-28.4" y1="-29.3" y2="-29.3" gradientTransform="translate(679.19618,626.41717)" gradientUnits="userSpaceOnUse" xlink:href="#linearGradient4941"/><linearGradient id="linearGradient5163" x1="-43.6" x2="-28.4" y1="-29.3" y2="-29.3" gradientTransform="translate(679.19618,639.41717)" gradientUnits="userSpaceOnUse" xlink:href="#linearGradient4941"/><linearGradient id="linearGradient5167" x1="-43.6" x2="-28.4" y1="-29.3" y2="-29.3" gradientTransform="translate(679.19618,652.41717)" gradientUnits="userSpaceOnUse" xlink:href="#linearGradient4941"/><linearGradient id="linearGradient5171" x1="-43.6" x2="-28.4" y1="-29.3" y2="-29.3" gradientTransform="translate(679.19618,665.41717)" gradientUnits="userSpaceOnUse" xlink:href="#linearGradient4941"/><linearGradient id="linearGradient5175" x1="-43.6" x2="-28.4" y1="-29.3" y2="-29.3" gradientTransform="translate(679.19618,678.41717)" gradientUnits="userSpaceOnUse" xlink:href="#linearGradient4941"/><linearGradient id="linearGradient5247" x1="-43.6" x2="-28.4" y1="-29.3" y2="-29.3" gradientTransform="matrix(-1,0,0,-1,429.19618,475.67813)" gradientUnits="userSpaceOnUse" xlink:href="#linearGradient4941"/><linearGradient id="linearGradient5243" x1="-43.6" x2="-28.4" y1="-29.3" y2="-29.3" gradientTransform="matrix(-1,0,0,-1,429.19618,488.67813)" gradientUnits="userSpaceOnUse" xlink:href="#linearGradient4941"/><linearGradient id="linearGradient5239" x1="-43.6" x2="-28.4" y1="-29.3" y2="-29.3" gradientTransform="matrix(-1,0,0,-1,429.19618,501.67813)" gradientUnits="userSpaceOnUse" xlink:href="#linearGradient4941"/><linearGradient id="linearGradient5235" x1="-43.6" x2="-28.4" y1="-29.3" y2="-29.3" gradientTransform="matrix(-1,0,0,-1,429.19618,514.67813)" gradientUnits="userSpaceOnUse" xlink:href="#linearGradient4941"/><linearGradient id="linearGradient5231" x1="-43.6" x2="-28.4" y1="-29.3" y2="-29.3" gradientTransform="matrix(-1,0,0,-1,429.19618,527.67813)" gradientUnits="userSpaceOnUse" xlink:href="#linearGradient4941"/><linearGradient id="linearGradient5227" x1="-43.6" x2="-28.4" y1="-29.3" y2="-29.3" gradientTransform="matrix(-1,0,0,-1,429.19618,540.67813)" gradientUnits="userSpaceOnUse" xlink:href="#linearGradient4941"/><linearGradient id="linearGradient5223" x1="-43.6" x2="-28.4" y1="-29.3" y2="-29.3" gradientTransform="matrix(-1,0,0,-1,429.19618,553.73849)" gradientUnits="userSpaceOnUse" xlink:href="#linearGradient4941"/><linearGradient id="linearGradient5219" x1="-43.6" x2="-28.4" y1="-29.3" y2="-29.3" gradientTransform="matrix(-1,0,0,-1,429.19618,566.73849)" gradientUnits="userSpaceOnUse" xlink:href="#linearGradient4941"/><linearGradient id="linearGradient5215" x1="-43.6" x2="-28.4" y1="-29.3" y2="-29.3" gradientTransform="matrix(-1,0,0,-1,429.19618,579.73849)" gradientUnits="userSpaceOnUse" xlink:href="#linearGradient4941"/><linearGradient id="linearGradient5211" x1="-43.6" x2="-28.4" y1="-29.3" y2="-29.3" gradientTransform="matrix(-1,0,0,-1,429.19618,592.73849)" gradientUnits="userSpaceOnUse" xlink:href="#linearGradient4941"/><linearGradient id="linearGradient5207" x1="-43.6" x2="-28.4" y1="-29.3" y2="-29.3" gradientTransform="matrix(-1,0,0,-1,429.19618,605.73849)" gradientUnits="userSpaceOnUse" xlink:href="#linearGradient4941"/><linearGradient id="linearGradient5203" x1="-43.6" x2="-28.4" y1="-29.3" y2="-29.3" gradientTransform="matrix(-1,0,0,-1,429.19618,618.73849)" gradientUnits="userSpaceOnUse" xlink:href="#linearGradient4941"/><linearGradient id="linearGradient4941"><stop id="stop4943" offset="0" stop-color="#7f7f7f"/><stop id="stop4951" offset=".771" stop-color="#7f7f7f"/><stop id="stop4945" offset="1" stop-color="#7f7f7f" stop-opacity="0"/></linearGradient></defs><metadata id="metadata5419"/><g id="layer1" transform="translate(-431.29956,-455.34533)"><path id="path4931" stroke-miterlimit="4" d="m 479.36185,495.28283 6.44002,0 0,-9.91667 c 0,-3.70883 -0.0656,-4.95833 -3.22001,-4.95833 -3.16001,0 -3.22001,1.18008 -3.22001,4.95833 l 0,9.91667 z" style="fill:url(#linearGradient4949);fill-rule:evenodd;stroke:url(#linearGradient4949);stroke-width:.09958258;stroke-linecap:butt;stroke-linejoin:miter;stroke-miterlimit:4;stroke-dasharray:none"/><path id="path4957" stroke-miterlimit="4" d="m 492.36189,495.28283 6.44002,0 0,-9.91667 c 0,-3.70883 -0.0656,-4.95833 -3.22001,-4.95833 -3.16001,0 -3.22001,1.18008 -3.22001,4.95833 l 0,9.91667 z" style="fill:url(#linearGradient4971);fill-rule:evenodd;stroke:url(#linearGradient4971);stroke-width:.09958258;stroke-linecap:butt;stroke-linejoin:miter;stroke-miterlimit:4;stroke-dasharray:none"/><path id="path4973" stroke-miterlimit="4" d="m 505.36192,495.28283 6.44002,0 0,-9.91667 c 0,-3.70883 -0.0656,-4.95833 -3.22001,-4.95833 -3.16001,0 -3.22001,1.18008 -3.22001,4.95833 l 0,9.91667 z" style="fill:url(#linearGradient4977);fill-rule:evenodd;stroke:url(#linearGradient4977);stroke-width:.09958258;stroke-linecap:butt;stroke-linejoin:miter;stroke-miterlimit:4;stroke-dasharray:none"/><path id="path4979" stroke-miterlimit="4" d="m 518.36196,495.28283 6.44002,0 0,-9.91667 c 0,-3.70883 -0.0656,-4.95833 -3.22001,-4.95833 -3.16001,0 -3.22001,1.18008 -3.22001,4.95833 l 0,9.91667 z" style="fill:url(#linearGradient4987);fill-rule:evenodd;stroke:url(#linearGradient4987);stroke-width:.09958258;stroke-linecap:butt;stroke-linejoin:miter;stroke-miterlimit:4;stroke-dasharray:none"/><path id="path4981" stroke-miterlimit="4" d="m 531.362,495.28283 6.44001,0 0,-9.91667 c 0,-3.70883 -0.0656,-4.95833 -3.22,-4.95833 -3.16001,0 -3.22001,1.18008 -3.22001,4.95833 l 0,9.91667 z" style="fill:url(#linearGradient4991);fill-rule:evenodd;stroke:url(#linearGradient4991);stroke-width:.09958258;stroke-linecap:butt;stroke-linejoin:miter;stroke-miterlimit:4;stroke-dasharray:none"/><path id="path4983" stroke-miterlimit="4" d="m 544.36203,495.28283 6.44002,0 0,-9.91667 c 0,-3.70883 -0.0656,-4.95833 -3.22001,-4.95833 -3.16001,0 -3.22001,1.18008 -3.22001,4.95833 l 0,9.91667 z" style="fill:url(#linearGradient4995);fill-rule:evenodd;stroke:url(#linearGradient4995);stroke-width:.09958258;stroke-linecap:butt;stroke-linejoin:miter;stroke-miterlimit:4;stroke-dasharray:none"/><path id="path4997" stroke-miterlimit="4" d="m 557.36207,495.28283 6.44002,0 0,-9.91667 c 0,-3.70883 -0.0656,-4.95833 -3.22001,-4.95833 -3.16001,0 -3.22001,1.18008 -3.22001,4.95833 l 0,9.91667 z" style="fill:url(#linearGradient5011);fill-rule:evenodd;stroke:url(#linearGradient5011);stroke-width:.09958258;stroke-linecap:butt;stroke-linejoin:miter;stroke-miterlimit:4;stroke-dasharray:none"/><path id="path4999" stroke-miterlimit="4" d="m 570.36211,495.28283 6.44001,0 0,-9.91667 c 0,-3.70883 -0.0656,-4.95833 -3.22001,-4.95833 -3.16,0 -3.22,1.18008 -3.22,4.95833 l 0,9.91667 z" style="fill:url(#linearGradient5015);fill-rule:evenodd;stroke:url(#linearGradient5015);stroke-width:.09958258;stroke-linecap:butt;stroke-linejoin:miter;stroke-miterlimit:4;stroke-dasharray:none"/><path id="path5001" stroke-miterlimit="4" d="m 583.36214,495.28283 6.44002,0 0,-9.91667 c 0,-3.70883 -0.0656,-4.95833 -3.22001,-4.95833 -3.16001,0 -3.22001,1.18008 -3.22001,4.95833 l 0,9.91667 z" style="fill:url(#linearGradient5019);fill-rule:evenodd;stroke:url(#linearGradient5019);stroke-width:.09958258;stroke-linecap:butt;stroke-linejoin:miter;stroke-miterlimit:4;stroke-dasharray:none"/><path id="path5003" stroke-miterlimit="4" d="m 596.36218,495.28283 6.44002,0 0,-9.91667 c 0,-3.70883 -0.0656,-4.95833 -3.22001,-4.95833 -3.16001,0 -3.22001,1.18008 -3.22001,4.95833 l 0,9.91667 z" style="fill:url(#linearGradient5023);fill-rule:evenodd;stroke:url(#linearGradient5023);stroke-width:.09958258;stroke-linecap:butt;stroke-linejoin:miter;stroke-miterlimit:4;stroke-dasharray:none"/><path id="path5005" stroke-miterlimit="4" d="m 609.36221,495.28283 6.44002,0 0,-9.91667 c 0,-3.70883 -0.0656,-4.95833 -3.22001,-4.95833 -3.16001,0 -3.22001,1.18008 -3.22001,4.95833 l 0,9.91667 z" style="fill:url(#linearGradient5027);fill-rule:evenodd;stroke:url(#linearGradient5027);stroke-width:.09958258;stroke-linecap:butt;stroke-linejoin:miter;stroke-miterlimit:4;stroke-dasharray:none"/><path id="path5007" stroke-miterlimit="4" d="m 622.36225,495.28283 6.44002,0 0,-9.91667 c 0,-3.70883 -0.0656,-4.95833 -3.22001,-4.95833 -3.16001,0 -3.22001,1.18008 -3.22001,4.95833 l 0,9.91667 z" style="fill:url(#linearGradient5031);fill-rule:evenodd;stroke:url(#linearGradient5031);stroke-width:.09958258;stroke-linecap:butt;stroke-linejoin:miter;stroke-miterlimit:4;stroke-dasharray:none"/><path id="path5033" stroke-miterlimit="4" d="m 628.80206,659.28283 -6.44,0 v 10 c 0,3.74 0.0656,5 3.22,5 3.16,0 3.22,-1.19 3.22,-5 v -10 z" style="fill:url(#linearGradient5059);fill-rule:evenodd;stroke:url(#linearGradient5059);stroke-width:.09999997;stroke-linecap:butt;stroke-linejoin:miter;stroke-miterlimit:4;stroke-dasharray:none"/><path id="path5035" stroke-miterlimit="4" d="m 615.80206,659.28283 -6.44,0 v 10 c 0,3.74 0.0656,5 3.22,5 3.16,0 3.22,-1.19 3.22,-5 v -10 z" style="fill:url(#linearGradient5063);fill-rule:evenodd;stroke:url(#linearGradient5063);stroke-width:.09999997;stroke-linecap:butt;stroke-linejoin:miter;stroke-miterlimit:4;stroke-dasharray:none"/><path id="path5037" stroke-miterlimit="4" d="m 602.80206,659.28283 -6.44,0 v 10 c 0,3.74 0.0656,5 3.22,5 3.16,0 3.22,-1.19 3.22,-5 v -10 z" style="fill:url(#linearGradient5067);fill-rule:evenodd;stroke:url(#linearGradient5067);stroke-width:.09999997;stroke-linecap:butt;stroke-linejoin:miter;stroke-miterlimit:4;stroke-dasharray:none"/><path id="path5039" stroke-miterlimit="4" d="m 589.80206,659.28283 -6.44,0 v 10 c 0,3.74 0.0656,5 3.22,5 3.16,0 3.22,-1.19 3.22,-5 v -10 z" style="fill:url(#linearGradient5071);fill-rule:evenodd;stroke:url(#linearGradient5071);stroke-width:.09999997;stroke-linecap:butt;stroke-linejoin:miter;stroke-miterlimit:4;stroke-dasharray:none"/><path id="path5041" stroke-miterlimit="4" d="m 576.80206,659.28283 -6.44,0 v 10 c 0,3.74 0.0656,5 3.22,5 3.16,0 3.22,-1.19 3.22,-5 v -10 z" style="fill:url(#linearGradient5075);fill-rule:evenodd;stroke:url(#linearGradient5075);stroke-width:.09999997;stroke-linecap:butt;stroke-linejoin:miter;stroke-miterlimit:4;stroke-dasharray:none"/><path id="path5043" stroke-miterlimit="4" d="m 563.80206,659.28283 -6.44,0 v 10 c 0,3.74 0.0656,5 3.22,5 3.16,0 3.22,-1.19 3.22,-5 v -10 z" style="fill:url(#linearGradient5079);fill-rule:evenodd;stroke:url(#linearGradient5079);stroke-width:.09999997;stroke-linecap:butt;stroke-linejoin:miter;stroke-miterlimit:4;stroke-dasharray:none"/><path id="path5045" stroke-miterlimit="4" d="m 550.80206,659.28283 -6.44,0 v 10 c 0,3.74 0.0656,5 3.22,5 3.16,0 3.22,-1.19 3.22,-5 v -10 z" style="fill:url(#linearGradient5083);fill-rule:evenodd;stroke:url(#linearGradient5083);stroke-width:.09999997;stroke-linecap:butt;stroke-linejoin:miter;stroke-miterlimit:4;stroke-dasharray:none"/><path id="path5047" stroke-miterlimit="4" d="m 537.80206,659.28283 -6.44,0 v 10 c 0,3.74 0.0656,5 3.22,5 3.16,0 3.22,-1.19 3.22,-5 v -10 z" style="fill:url(#linearGradient5087);fill-rule:evenodd;stroke:url(#linearGradient5087);stroke-width:.09999997;stroke-linecap:butt;stroke-linejoin:miter;stroke-miterlimit:4;stroke-dasharray:none"/><path id="path5049" stroke-miterlimit="4" d="m 524.80206,659.28283 -6.44,0 v 10 c 0,3.74 0.0656,5 3.22,5 3.16,0 3.22,-1.19 3.22,-5 v -10 z" style="fill:url(#linearGradient5091);fill-rule:evenodd;stroke:url(#linearGradient5091);stroke-width:.09999997;stroke-linecap:butt;stroke-linejoin:miter;stroke-miterlimit:4;stroke-dasharray:none"/><path id="path5051" stroke-miterlimit="4" d="m 511.80206,659.28283 -6.44,0 v 10 c 0,3.74 0.0656,5 3.22,5 3.16,0 3.22,-1.19 3.22,-5 v -10 z" style="fill:url(#linearGradient5095);fill-rule:evenodd;stroke:url(#linearGradient5095);stroke-width:.09999997;stroke-linecap:butt;stroke-linejoin:miter;stroke-miterlimit:4;stroke-dasharray:none"/><path id="path5053" stroke-miterlimit="4" d="m 498.80206,659.28283 -6.44,0 v 10 c 0,3.74 0.0656,5 3.22,5 3.16,0 3.22,-1.19 3.22,-5 v -10 z" style="fill:url(#linearGradient5099);fill-rule:evenodd;stroke:url(#linearGradient5099);stroke-width:.09999997;stroke-linecap:butt;stroke-linejoin:miter;stroke-miterlimit:4;stroke-dasharray:none"/><path id="path5055" stroke-miterlimit="4" d="m 485.80206,659.28283 -6.44,0 v 10 c 0,3.74 0.0656,5 3.22,5 3.16,0 3.22,-1.19 3.22,-5 v -10 z" style="fill:url(#linearGradient5103);fill-rule:evenodd;stroke:url(#linearGradient5103);stroke-width:.09999997;stroke-linecap:butt;stroke-linejoin:miter;stroke-miterlimit:4;stroke-dasharray:none"/><path id="path5105" stroke-miterlimit="4" d="m 636.36206,502.84283 0,6.44 h 10 c 3.74,0 5,-0.0656 5,-3.22 0,-3.16 -1.19,-3.22 -5,-3.22 h -10 z" style="fill:url(#linearGradient5131);fill-rule:evenodd;stroke:url(#linearGradient5131);stroke-width:.09999997;stroke-linecap:butt;stroke-linejoin:miter;stroke-miterlimit:4;stroke-dasharray:none"/><path id="path5107" stroke-miterlimit="4" d="m 636.36206,515.84283 0,6.44 h 10 c 3.74,0 5,-0.0656 5,-3.22 0,-3.16 -1.19,-3.22 -5,-3.22 h -10 z" style="fill:url(#linearGradient5135);fill-rule:evenodd;stroke:url(#linearGradient5135);stroke-width:.09999997;stroke-linecap:butt;stroke-linejoin:miter;stroke-miterlimit:4;stroke-dasharray:none"/><path id="path5109" stroke-miterlimit="4" d="m 636.36206,528.84283 0,6.44 h 10 c 3.74,0 5,-0.0656 5,-3.22 0,-3.16 -1.19,-3.22 -5,-3.22 h -10 z" style="fill:url(#linearGradient5139);fill-rule:evenodd;stroke:url(#linearGradient5139);stroke-width:.09999997;stroke-linecap:butt;stroke-linejoin:miter;stroke-miterlimit:4;stroke-dasharray:none"/><path id="path5111" stroke-miterlimit="4" d="m 636.36206,541.84283 0,6.44 h 10 c 3.74,0 5,-0.0656 5,-3.22 0,-3.16 -1.19,-3.22 -5,-3.22 h -10 z" style="fill:url(#linearGradient5143);fill-rule:evenodd;stroke:url(#linearGradient5143);stroke-width:.09999997;stroke-linecap:butt;stroke-linejoin:miter;stroke-miterlimit:4;stroke-dasharray:none"/><path id="path5113" stroke-miterlimit="4" d="m 636.36206,554.84283 0,6.44 h 10 c 3.74,0 5,-0.0656 5,-3.22 0,-3.16 -1.19,-3.22 -5,-3.22 h -10 z" style="fill:url(#linearGradient5147);fill-rule:evenodd;stroke:url(#linearGradient5147);stroke-width:.09999997;stroke-linecap:butt;stroke-linejoin:miter;stroke-miterlimit:4;stroke-dasharray:none"/><path id="path5115" stroke-miterlimit="4" d="m 636.36206,567.84283 0,6.44 h 10 c 3.74,0 5,-0.0656 5,-3.22 0,-3.16 -1.19,-3.22 -5,-3.22 h -10 z" style="fill:url(#linearGradient5151);fill-rule:evenodd;stroke:url(#linearGradient5151);stroke-width:.09999997;stroke-linecap:butt;stroke-linejoin:miter;stroke-miterlimit:4;stroke-dasharray:none"/><path id="path5117" stroke-miterlimit="4" d="m 636.36206,580.84283 0,6.44 h 10 c 3.74,0 5,-0.0656 5,-3.22 0,-3.16 -1.19,-3.22 -5,-3.22 h -10 z" style="fill:url(#linearGradient5155);fill-rule:evenodd;stroke:url(#linearGradient5155);stroke-width:.09999997;stroke-linecap:butt;stroke-linejoin:miter;stroke-miterlimit:4;stroke-dasharray:none"/><path id="path5119" stroke-miterlimit="4" d="m 636.36206,593.84283 0,6.44 h 10 c 3.74,0 5,-0.0656 5,-3.22 0,-3.16 -1.19,-3.22 -5,-3.22 h -10 z" style="fill:url(#linearGradient5159);fill-rule:evenodd;stroke:url(#linearGradient5159);stroke-width:.09999997;stroke-linecap:butt;stroke-linejoin:miter;stroke-miterlimit:4;stroke-dasharray:none"/><path id="path5121" stroke-miterlimit="4" d="m 636.36206,606.84283 0,6.44 h 10 c 3.74,0 5,-0.0656 5,-3.22 0,-3.16 -1.19,-3.22 -5,-3.22 h -10 z" style="fill:url(#linearGradient5163);fill-rule:evenodd;stroke:url(#linearGradient5163);stroke-width:.09999997;stroke-linecap:butt;stroke-linejoin:miter;stroke-miterlimit:4;stroke-dasharray:none"/><path id="path5123" stroke-miterlimit="4" d="m 636.36206,619.84283 0,6.44 h 10 c 3.74,0 5,-0.0656 5,-3.22 0,-3.16 -1.19,-3.22 -5,-3.22 h -10 z" style="fill:url(#linearGradient5167);fill-rule:evenodd;stroke:url(#linearGradient5167);stroke-width:.09999997;stroke-linecap:butt;stroke-linejoin:miter;stroke-miterlimit:4;stroke-dasharray:none"/><path id="path5125" stroke-miterlimit="4" d="m 636.36206,632.84283 0,6.44 h 10 c 3.74,0 5,-0.0656 5,-3.22 0,-3.16 -1.19,-3.22 -5,-3.22 h -10 z" style="fill:url(#linearGradient5171);fill-rule:evenodd;stroke:url(#linearGradient5171);stroke-width:.09999997;stroke-linecap:butt;stroke-linejoin:miter;stroke-miterlimit:4;stroke-dasharray:none"/><path id="path5127" stroke-miterlimit="4" d="m 636.36206,645.84283 0,6.44 h 10 c 3.74,0 5,-0.0656 5,-3.22 0,-3.16 -1.19,-3.22 -5,-3.22 h -10 z" style="fill:url(#linearGradient5175);fill-rule:evenodd;stroke:url(#linearGradient5175);stroke-width:.09999997;stroke-linecap:butt;stroke-linejoin:miter;stroke-miterlimit:4;stroke-dasharray:none"/><path id="path5199" stroke-miterlimit="4" d="m 472.36206,509.28283 0,-6.44 h -10 c -3.74,0 -5,0.0656 -5,3.22 0,3.16 1.19,3.22 5,3.22 h 10 z" style="fill:url(#linearGradient5247);fill-rule:evenodd;stroke:url(#linearGradient5247);stroke-width:.09999997;stroke-linecap:butt;stroke-linejoin:miter;stroke-miterlimit:4;stroke-dasharray:none"/><path id="path5197" stroke-miterlimit="4" d="m 472.36206,522.28283 0,-6.44 h -10 c -3.74,0 -5,0.0656 -5,3.22 0,3.16 1.19,3.22 5,3.22 h 10 z" style="fill:url(#linearGradient5243);fill-rule:evenodd;stroke:url(#linearGradient5243);stroke-width:.09999997;stroke-linecap:butt;stroke-linejoin:miter;stroke-miterlimit:4;stroke-dasharray:none"/><path id="path5195" stroke-miterlimit="4" d="m 472.36206,535.28283 0,-6.44 h -10 c -3.74,0 -5,0.0656 -5,3.22 0,3.16 1.19,3.22 5,3.22 h 10 z" style="fill:url(#linearGradient5239);fill-rule:evenodd;stroke:url(#linearGradient5239);stroke-width:.09999997;stroke-linecap:butt;stroke-linejoin:miter;stroke-miterlimit:4;stroke-dasharray:none"/><path id="path5193" stroke-miterlimit="4" d="m 472.36206,548.28283 0,-6.44 h -10 c -3.74,0 -5,0.0656 -5,3.22 0,3.16 1.19,3.22 5,3.22 h 10 z" style="fill:url(#linearGradient5235);fill-rule:evenodd;stroke:url(#linearGradient5235);stroke-width:.09999997;stroke-linecap:butt;stroke-linejoin:miter;stroke-miterlimit:4;stroke-dasharray:none"/><path id="path5191" stroke-miterlimit="4" d="m 472.36206,561.28283 0,-6.44 h -10 c -3.74,0 -5,0.0656 -5,3.22 0,3.16 1.19,3.22 5,3.22 h 10 z" style="fill:url(#linearGradient5231);fill-rule:evenodd;stroke:url(#linearGradient5231);stroke-width:.09999997;stroke-linecap:butt;stroke-linejoin:miter;stroke-miterlimit:4;stroke-dasharray:none"/><path id="path5189" stroke-miterlimit="4" d="m 472.36206,574.28283 0,-6.44 h -10 c -3.74,0 -5,0.0656 -5,3.22 0,3.16 1.19,3.22 5,3.22 h 10 z" style="fill:url(#linearGradient5227);fill-rule:evenodd;stroke:url(#linearGradient5227);stroke-width:.09999997;stroke-linecap:butt;stroke-linejoin:miter;stroke-miterlimit:4;stroke-dasharray:none"/><path id="path5187" stroke-miterlimit="4" d="m 472.36206,587.28283 0,-6.44 h -10 c -3.74,0 -5,0.0656 -5,3.22 0,3.16 1.19,3.22 5,3.22 h 10 z" style="fill:url(#linearGradient5223);fill-rule:evenodd;stroke:url(#linearGradient5223);stroke-width:.09999997;stroke-linecap:butt;stroke-linejoin:miter;stroke-miterlimit:4;stroke-dasharray:none"/><path id="path5185" stroke-miterlimit="4" d="m 472.36206,600.28283 0,-6.44 h -10 c -3.74,0 -5,0.0656 -5,3.22 0,3.16 1.19,3.22 5,3.22 h 10 z" style="fill:url(#linearGradient5219);fill-rule:evenodd;stroke:url(#linearGradient5219);stroke-width:.09999997;stroke-linecap:butt;stroke-linejoin:miter;stroke-miterlimit:4;stroke-dasharray:none"/><path id="path5183" stroke-miterlimit="4" d="m 472.36206,613.28283 0,-6.44 h -10 c -3.74,0 -5,0.0656 -5,3.22 0,3.16 1.19,3.22 5,3.22 h 10 z" style="fill:url(#linearGradient5215);fill-rule:evenodd;stroke:url(#linearGradient5215);stroke-width:.09999997;stroke-linecap:butt;stroke-linejoin:miter;stroke-miterlimit:4;stroke-dasharray:none"/><path id="path5181" stroke-miterlimit="4" d="m 472.36206,626.28283 0,-6.44 h -10 c -3.74,0 -5,0.0656 -5,3.22 0,3.16 1.19,3.22 5,3.22 h 10 z" style="fill:url(#linearGradient5211);fill-rule:evenodd;stroke:url(#linearGradient5211);stroke-width:.09999997;stroke-linecap:butt;stroke-linejoin:miter;stroke-miterlimit:4;stroke-dasharray:none"/><path id="path5179" stroke-miterlimit="4" d="m 472.36206,639.28283 0,-6.44 h -10 c -3.74,0 -5,0.0656 -5,3.22 0,3.16 1.19,3.22 5,3.22 h 10 z" style="fill:url(#linearGradient5207);fill-rule:evenodd;stroke:url(#linearGradient5207);stroke-width:.09999997;stroke-linecap:butt;stroke-linejoin:miter;stroke-miterlimit:4;stroke-dasharray:none"/><path id="path5177" stroke-miterlimit="4" d="m 472.36206,652.28283 0,-6.44 h -10 c -3.74,0 -5,0.0656 -5,3.22 0,3.16 1.19,3.22 5,3.22 h 10 z" style="fill:url(#linearGradient5203);fill-rule:evenodd;stroke:url(#linearGradient5203);stroke-width:.09999997;stroke-linecap:butt;stroke-linejoin:miter;stroke-miterlimit:4;stroke-dasharray:none"/><rect id="rect2451" width="154.193" height="154.193" x="477.203" y="500.249" stroke-miterlimit="4" style="fill:#00007f;fill-rule:evenodd;stroke:#00007f;stroke-width:17.80715561;stroke-linecap:round;stroke-linejoin:round;stroke-miterlimit:4;stroke-dasharray:none;stroke-dashoffset:0"/><path id="path4788" fill="#FFF" stroke="#FFF" stroke-dashoffset="0" stroke-linecap="round" stroke-linejoin="round" stroke-miterlimit="4" stroke-width="20" d="m 116.7992,-19.126507 c 0,9.9999033 -8.10653,18.1064264 -18.106428,18.1064264 -9.999903,0 -18.106426,-8.1065231 -18.106426,-18.1064264 0,-9.999903 8.106523,-18.106426 18.106426,-18.106426 9.999898,0 18.106428,8.106523 18.106428,18.106426 z" transform="matrix(0.2668429,0,0,0.2668429,598.91761,511.49558)" style="stroke-dasharray:none"/><path id="path4790" fill="#00007f" stroke="#00007f" stroke-dashoffset="0" stroke-linecap="round" stroke-linejoin="round" stroke-miterlimit="4" stroke-width="20" d="m 116.7992,-19.126507 c 0,9.9999033 -8.10653,18.1064264 -18.106428,18.1064264 -9.999903,0 -18.106426,-8.1065231 -18.106426,-18.1064264 0,-9.999903 8.106523,-18.106426 18.106426,-18.106426 9.999898,0 18.106428,8.106523 18.106428,18.106426 z" transform="matrix(0.53368578,0,0,0.53368578,607.62863,481.55287)" style="stroke-dasharray:none"/><path id="path4887" stroke-miterlimit="4" d="m 636.46118,464.95202 -164.62341,0 c -29.53243,0 -29.93153,30.14457 -29.93153,30.14457 l 0,164.69713 c 0,29.54566 25.24226,29.94493 25.24226,29.94493 l 169.612,0 c 30.53016,0 29.93152,-31.64182 29.93152,-31.64182 l 0,-162.70079" style="fill:none;stroke:#7f7f7f;stroke-width:3.21337008;stroke-linecap:round;stroke-linejoin:miter;stroke-miterlimit:4;stroke-dasharray:9.64010984,9.64010984;stroke-dashoffset:0"/><text id="text2966" x="481.581" y="595.533" font-size="64" font-stretch="normal" font-style="normal" style="font-size:64px;font-style:normal;font-variant:normal;font-weight:400;font-stretch:normal;text-align:start;line-height:100%;writing-mode:lr-tb;text-anchor:start;fill:#fff;font-family:Helvetica" font-variant="normal" font-weight="normal" line-height="100%" xml:space="preserve"><tspan id="tspan2968" x="481.581" y="595.533" font-stretch="normal" font-style="normal" font-variant="normal" font-weight="normal" style="font-style:normal;font-variant:normal;font-weight:400;font-stretch:normal;font-family:Helvetica">eLua</tspan></text></g></svg>